<?xml version="1.0" encoding="UTF-8" standalone="no"?><!DOCTYPE svg PUBLIC "-//W3C//DTD SVG 1.1//EN" "http://www.w3.org/Graphics/SVG/1.1/DTD/svg11.dtd"><svg width="100%" height="100%" viewBox="0 0 480 320" version="1.1" xmlns="http://www.w3.org/2000/svg" xmlns:xlink="http://www.w3.org/1999/xlink" xml:space="preserve" style="fill-rule:evenodd;clip-rule:evenodd;stroke-linecap:round;stroke-linejoin:round;stroke-miterlimit:1.41421;"><path id="circlePath" d="M120,200c0,0 -0.711,-74.655 122.861,-74.655c117.908,0 117.139,74.655 117.139,74.655" style="fill:none;stroke-width:1px;stroke:#000;"/><g id="import"><g id="mask_circleGroup"><rect x="24.542" y="32.235" width="420.506" height="252.432" style="fill:#fff;"/><g id="cloud"><circle cx="222.344" cy="124.631" r="21.659" style="fill:#000;"/><circle cx="260.378" cy="109.162" r="26.808" style="fill:#000;"/><circle cx="251.736" cy="140.263" r="28.987" style="fill:#000;"/><circle cx="290.15" cy="123.765" r="24.908" style="fill:#000;"/></g></g><g id="circleGroup"><path id="mask_circle" d="M154.762,71.06l-161.177,87.983l89.891,164.673l161.178,-87.983c0,0 -106.172,47.091 -146.267,-26.36c-40.096,-73.451 56.375,-138.313 56.375,-138.313Z" style="fill:#fff;"/><path id="circle" d="M186.512,258.793c-33.411,36.799 -90.412,39.551 -127.211,6.141c-36.8,-33.411 -39.551,-90.412 -6.141,-127.211c33.41,-36.8 90.412,-39.551 127.211,-6.141c36.799,33.41 39.551,90.412 6.141,127.211Z" style="fill:#8a4582;"/></g><path d="M15.072,319.626l441.741,0c0,0 -3.313,-84.02 -222.447,-84.02c-219.135,0 -219.294,84.02 -219.294,84.02Z" style="fill:#d64615;"/></g></svg>